inDegrees=yes
name=ik_Xsens_quaternion
DataType=double
version=3
OpenSimVersion=4.4-2022-07-23-0e9fedc
endheader
time	pelvis_tilt	pelvis_list	pelvis_rotation	pelvis_tx	pelvis_ty	pelvis_tz	hip_flexion_r	hip_adduction_r	hip_rotation_r	knee_angle_r	knee_angle_r_beta	ankle_angle_r	subtalar_angle_r	mtp_angle_r	hip_flexion_l	hip_adduction_l	hip_rotation_l	knee_angle_l	knee_angle_l_beta	ankle_angle_l	subtalar_angle_l	mtp_angle_l	lumbar_extension	lumbar_bending	lumbar_rotation	arm_flex_r	arm_add_r	arm_rot_r	elbow_flex_r	pro_sup_r	wrist_flex_r	wrist_dev_r	arm_flex_l	arm_add_l	arm_rot_l	elbow_flex_l	pro_sup_l	wrist_flex_l	wrist_dev_l
25.03333333333333	-32.13007407339491	-44.39528472990102	-45.39808964515214	0	0.93	0	44.24878842145542	-9.964320862232547	1.552522896316837e-11	60.30087240429408	1.052448765279921	-4.990445433375694	0	0	44.24878842144696	-9.964320862233121	1.776473756685506e-15	60.30087240429413	1.052448765279922	-4.990445432711941	0	0	0	0	0	0	0	0	0	0	0	0	0	0	0	0	1.470293984931458e-39	0	0
25.05	-32.10905499045357	-44.41887312782148	-45.36832078552374	0	0.93	0	44.24884781776852	-9.964330308359376	1.552111880402286e-11	60.30085329493181	1.052448431758631	-4.990448696881988	0	0	44.24884781776008	-9.964330308359949	1.776473756685506e-15	60.30085329493185	1.052448431758632	-4.990448696218456	0	0	0	0	0	0	0	0	1.587117737547258e-39	0	0	0	0	0	0	0	1.052357267868557e-38	0	0
25.06666666666667	-32.11782955877013	-44.43459508588332	-45.35882093900307	3.470987982934626e-41	0.93	-8.669362920446816e-31	44.24890942263455	-9.96434010815608	1.551685477739315e-11	60.30083348196843	1.052448085957186	-4.990452082609369	-3.327860227606524e-16	-4.209729619072306e-19	44.2489094226261	-9.964340108156653	1.776473985312314e-15	60.30083348196847	1.052448085957187	-4.990452081946072	-5.820246545383247e-17	1.685103589468879e-17	8.458938725543096e-25	-8.278453693416366e-18	4.551042784390113e-19	6.999593887541909e-17	-1.832352245175888e-18	1.094261807863232e-16	0	3.878378051054827e-15	1.814138461224802e-19	1.263003236694229e-18	-1.32439310043918e-16	-6.073669621945117e-17	1.646712544761413e-16	1.403769294661787e-14	0	-1.036624551001467e-20	-2.060191994367342e-18
25.08333333333333	-32.14040500554129	-44.44000934461251	-45.36279201778997	0	0.93	0	44.24897689766825	-9.964350889918471	1.551216525002212e-11	60.30081183705117	1.052447708182113	-4.990455811840784	0	0	44.2489768976598	-9.964350889919045	1.776473985312314e-15	60.30081183705121	1.052447708182114	-4.990455811177747	0	0	0	0	0	0	0	0	7.241564489861415e-39	0	0	0	0	0	0	5.556828969062677e-40	0	0	0
25.1	-32.16333400054727	-44.43404108031243	-45.37648929276475	0	0.93	0	44.24906238850087	-9.964364693123132	1.550615903235005e-11	60.3007845745046	1.052447232360913	-4.990460598887509	0	0	44.24906238849243	-9.964364693123708	1.776473985312314e-15	60.30078457450463	1.052447232360914	-4.990460598224806	0	0	0	0	0	0	0	0	0	0	0	0	0	0	0	0	0	0	0
25.11666666666667	-32.20198454949602	-44.41028695947048	-45.40382899222649	0	0.93	0	44.24913913047632	-9.964377041497766	1.550032883717376e-11	60.30076005517434	1.05244680441787	-4.990464877539203	0	0	44.24913913046787	-9.96437704149834	1.776473985312314e-15	60.30076005517439	1.052446804417871	-4.990464876876793	0	0	0	0	0	0	0	0	0	0	0	0	0	0	0	0	0	0	0
25.13333333333333	-32.23613516702231	-44.39946919203518	-45.44319716221111	0	0.93	0	44.24922417563844	-9.96439078837116	1.54939035840639e-11	60.30073295446817	1.052446331421317	-4.990469646231385	0	0	44.24922417562999	-9.964390788371734	1.776473985312314e-15	60.30073295446821	1.052446331421318	-4.990469645569304	0	0	0	0	0	0	0	0	0	0	0	0	0	0	0	1.811081973626318e-39	0	0	0
25.15	-32.25836230974857	-44.39919794003944	-45.46799047255941	0	0.93	0	44.24930436183926	-9.964403716315349	1.548782885887322e-11	60.3007073682226	1.052445884857089	-4.990474127641812	0	0	44.24930436183082	-9.964403716315925	1.776473985312314e-15	60.30070736822264	1.05244588485709	-4.990474126980042	0	0	0	0	0	0	0	0	0	0	0	0	0	0	0	0	0	0	0
25.16666666666667	-32.27524713548075	-44.40035846186056	-45.47939468119696	0	0.93	0	44.24938086472439	-9.964416013424614	1.548201835017437e-11	60.30068292062266	1.052445458165976	-4.990478386824753	0	0	44.24938086471594	-9.96441601342519	1.776473985312314e-15	60.3006829206227	1.052445458165977	-4.990478386163283	0	0	0	0	0	0	0	0	0	1.727515017245581e-40	0	0	0	0	0	0	2.044829940076263e-39	0	0
25.18333333333333	-32.28653936690192	-44.41176678646487	-45.48656582749156	0	0.93	0	44.24944221052834	-9.964425779202708	1.547730838957216e-11	60.30066321046949	1.052445114158907	-4.990481760721047	-3.525971141633142e-17	1.5783979178355e-15	44.24944221051988	-9.964425779203284	1.776473985312314e-15	60.30066321046953	1.052445114158908	-4.990481760059835	-4.864635700160808e-17	3.699635249846328e-16	-1.702334831582581e-25	-4.155883091827582e-16	-4.044749681030817e-25	3.972467122921173e-15	6.080959943467268e-16	1.91976121158853e-15	0	0	4.784492446393613e-16	-2.28511231444612e-16	-4.405093820299399e-15	1.746541817403979e-14	-2.142964962888597e-15	2.000840433223596e-14	0	3.111538862263696e-18	-8.513615769635109e-16
25.2	-32.29239043081893	-44.42867310958244	-45.4843563296549	0	0.93	0	44.24950231563041	-9.964435328512323	1.547268963858003e-11	60.30064388049254	1.052444776787165	-4.990485057985003	2.592209418568987e-16	-1.392988823008723e-16	44.24950231562195	-9.964435328512899	1.776473985312314e-15	60.30064388049259	1.052444776787166	-4.99048505732401	-1.024153705739632e-17	-1.738875487984809e-16	-1.280370832732026e-25	4.747739982454937e-18	3.350165492561189e-25	-1.658346433777827e-15	-3.819671668257576e-16	2.587660010336541e-15	0	3.50357500621301e-15	-4.10196150475624e-17	2.237181084844146e-16	-4.781927881570828e-15	-5.684645544752224e-15	2.244575356874915e-15	1.410558720141604e-14	0	2.539761708612547e-17	9.296802819398481e-16
25.21666666666667	-32.29691299926114	-44.43440858833159	-45.48144140055188	0	0.93	0	44.24956826142169	-9.96444585228215	1.546811023301816e-11	60.3006227268892	1.052444407587138	-4.990488695781924	0	0	44.24956826141324	-9.964445852282728	1.776473985312314e-15	60.30062272688924	1.052444407587139	-4.990488695121181	0	0	0	0	0	0	0	0	0	1.275983914905046e-38	0	0	0	0	0	0	0	0	0
25.23333333333333	-32.29718889533549	-44.43552861724216	-45.4826562940899	0	0.93	0	44.2496468533664	-9.964458495569854	1.546260986911865e-11	60.30059763244672	1.052443969606493	-4.99049307525157	0	0	44.24964685335795	-9.96445849557043	1.776473985312314e-15	60.30059763244675	1.052443969606493	-4.990493074591137	0	0	0	0	0	0	0	0	0	0	0	0	0	0	0	0	7.952527676909934e-40	0	0
25.25	-32.30577380313622	-44.41663717269732	-45.48741241494459	0	0.93	0	44.24973371118046	-9.964472508225892	1.545651407722135e-11	60.30056994836395	1.052443486428098	-4.990497932327624	0	0	44.24973371117201	-9.964472508226468	1.776473985312314e-15	60.30056994836399	1.052443486428099	-4.99049793166753	0	0	0	0	0	0	0	0	1.021482659176407e-38	0	0	0	0	0	0	0	0	0	0
25.26666666666667	-32.31386470394529	-44.40851819534575	-45.48001009918787	0	0.93	0	44.24982097198336	-9.964486559433473	1.545040098833927e-11	60.30054211419384	1.052443000630185	-4.990502800023748	0	0	44.24982097197491	-9.964486559434048	1.776473985312314e-15	60.30054211419388	1.052443000630186	-4.990502799363995	0	0	0	0	0	0	0	0	2.191195775009104e-39	3.275222241016597e-39	0	0	0	0	0	1.975100250857761e-39	0	0	0
